/* XPM */
static char *result[] = {
/* columns rows colors chars-per-pixel */
"40 40 224 2 ",
"   c #020102",
".  c #0B0302",
"X  c #070409",
"o  c #0A050B",
"O  c #0D0A0C",
"+  c #130502",
"@  c #1D0A00",
"#  c #150806",
"$  c #0E0813",
"%  c #0A0510",
"&  c #110B16",
"*  c #130C1A",
"=  c #1C0E15",
"-  c #141315",
";  c #161419",
":  c #1B1314",
">  c #250B01",
",  c #2B0D01",
"<  c #320E02",
"1  c #2B1201",
"2  c #261506",
"3  c #331401",
"4  c #3E1401",
"5  c #3B1A07",
"6  c #29171B",
"7  c #3B1B11",
"8  c #37281B",
"9  c #3A220C",
"0  c #1B1224",
"q  c #211B26",
"w  c #261826",
"e  c #2A1B36",
"r  c #371B30",
"t  c #262324",
"y  c #3A2727",
"u  c #2D2437",
"i  c #34243A",
"p  c #3A2A36",
"a  c #3A323F",
"s  c #431C02",
"d  c #4B1C01",
"f  c #441805",
"g  c #521D01",
"h  c #581B00",
"j  c #4B210B",
"k  c #472502",
"l  c #5A2703",
"z  c #5E3001",
"x  c #492819",
"c  c #562B17",
"v  c #4A3619",
"b  c #5A3817",
"n  c #692D00",
"m  c #662B00",
"M  c #752A00",
"N  c #643601",
"B  c #6E3501",
"V  c #693C01",
"C  c #723300",
"Z  c #7B3401",
"A  c #723D00",
"S  c #683E19",
"D  c #723A1C",
"F  c #532D24",
"G  c #583937",
"H  c #4D3032",
"J  c #6E3E21",
"K  c #52451E",
"L  c #5B540F",
"P  c #6F4302",
"I  c #784703",
"U  c #7A4A18",
"Y  c #7E5215",
"T  c #72560E",
"R  c #5D443A",
"E  c #564323",
"W  c #664638",
"Q  c #785635",
"!  c #704E30",
"~  c #271D42",
"^  c #392744",
"/  c #3C3343",
"(  c #3B334B",
")  c #3D2A51",
"_  c #463B4C",
"`  c #4A3949",
"'  c #52394B",
"]  c #4D3C5A",
"[  c #4D3752",
"{  c #553E53",
"}  c #452A4B",
"|  c #473562",
" . c #543863",
".. c #663F66",
"X. c #4E4158",
"o. c #584357",
"O. c #584A4D",
"+. c #6D4E40",
"@. c #76554A",
"#. c #644954",
"$. c #6E595C",
"%. c #795B56",
"&. c #766452",
"*. c #5B4967",
"=. c #5E4E70",
"-. c #5E5074",
";. c #654E66",
":. c #685467",
">. c #7B5E65",
",. c #645473",
"<. c #6C5B79",
"1. c #725A7B",
"2. c #7C6466",
"3. c #7B6375",
"4. c #823900",
"5. c #884701",
"6. c #944B00",
"7. c #9D4900",
"8. c #8A5C02",
"9. c #8C5200",
"0. c #9C5400",
"q. c #905F00",
"w. c #845911",
"e. c #A54E00",
"r. c #A65700",
"t. c #A95C01",
"y. c #A35D00",
"u. c #B74F02",
"i. c #896308",
"p. c #966301",
"a. c #A46200",
"s. c #BD6802",
"d. c #B66400",
"f. c #A87702",
"g. c #855624",
"h. c #89602F",
"j. c #9F6C23",
"k. c #9A7327",
"l. c #8F6132",
"z. c #887828",
"x. c #A47022",
"c. c #CE6D00",
"v. c #D26900",
"b. c #CA7A02",
"n. c #D27700",
"m. c #DD7E00",
"M. c #D77701",
"N. c #F87F00",
"B. c #8A5F4C",
"V. c #9F6E41",
"C. c #836853",
"Z. c #8B675A",
"A. c #936F5D",
"S. c #9A795A",
"D. c #846349",
"F. c #977666",
"G. c #846B75",
"H. c #BA8302",
"J. c #BE9D0E",
"K. c #B68A1C",
"L. c #BE901D",
"P. c #A6892F",
"I. c #AF902F",
"U. c #AC8E36",
"Y. c #C08D04",
"T. c #C48000",
"R. c #DA8B00",
"E. c #C89302",
"W. c #DA8518",
"Q. c #E68600",
"!. c #E88B01",
"~. c #EC9410",
"^. c #FC9703",
"/. c #DBA200",
"(. c #D9A707",
"). c #D9A71D",
"_. c #D5B41D",
"`. c #C9A814",
"'. c #FEA500",
"]. c #FFAC00",
"[. c #FCAE09",
"{. c #F5A403",
"}. c #FFBA04",
"|. c #FFB50E",
" X c #E9AF10",
".X c #E5AE05",
"XX c #C39D3F",
"oX c #CD9E2C",
"OX c #D6A62B",
"+X c #DAB62E",
"@X c #E4B625",
"#X c #FAC609",
"$X c #FFD10C",
"%X c #E4C81D",
"&X c #F3C717",
"*X c #FBD919",
"=X c #DDC231",
"-X c #ECCB2B",
";X c #FFC62E",
":X c #E0C13E",
">X c #EDD036",
",X c #9F865F",
"<X c #A1834B",
"1X c #BFAC5E",
"2X c #97816F",
"3X c #AC8E7F",
"4X c #A19371",
"5X c #B59678",
"6X c #A58C69",
"7X c #BEA978",
"8X c #DBB54A",
"9X c #C5B264",
"0X c #E3CC4B",
"qX c #846E8E",
"wX c #8E7796",
"eX c #8972A0",
"rX c #9B8098",
"tX c #B39E83",
"yX c #9E87A7",
"uX c #B194AC",
"iX c #A78FB0",
"pX c #AA92AD",
"aX c #D8BFA8",
"sX c #FFFFFF",
/* pixels */
"sXsXsXsXsXsXsXsXsXsXsXsXsXsXsXsXsXsXsXsXsXsXsXsXsXsXsXsXsXsXsXsXsXsXsXsXsXsXsXsX",
"sXsXsXsXsXsXsXsXsXsXsXsXsXsXsXsXsXsXsXsXsXsXsXsXsXsXsXsXsXsXsXsXsXsXsXsXsXsXsXsX",
"sXsXsXsXsXsXsXsXsXsXsXsXsXsXsXsXsXsXsXsXsXsXsXsXsXsXsXsXsXsXsXsXsXsXsXsXsXsXsXsX",
"sXsXsXsXsXsXsXsXsXsXsXsXsXsXsXsXsXsXsXsXsXsXsXsXsXsXsXsXsXsXsXsXsXsXsXsXsXsXsXsX",
"sXsXsXsXsXsXsXsXsXsXsXsXsXsXsXsXsXsXsXsXsXsXsXsXsXsXsXsXsXsXsXsXsXsXsXsXsXsXsXsX",
"sXsXsXsXsXsXsXsXsXsXsXsXsXsXsXsXsXsXsXsXsXsXsXsXsXsXsXsXsXsXsXsXsXsXsXsXsXsXsXsX",
"sXsXsXsXsXsXsXsXsXsXsXsXsXsXsXsXsXsXsXsXsXsXsXsXsXsXsXsXsXsXsXsXsXsXsXsXsXsXsXsX",
"sXsXsXsXsXsXsXsXsXsXsXsXsXsXsXsXsXsXsXsXsXsXsXsXsXsXsXsXsXsXsXsXsXsXsXsXsXsXsXsX",
"sXsXsXsXsXsXsXsXsXsXsXsXsXsXsXsXsXsXsXsXsXsXsXsXsXsXsXsXsXsXsXsXsXsXsXsXsXsXsXsX",
"sXsXsXsXsXsXsXsXsXsXsXsXsXsXsXsXsXsXsXsXE y t t 8 P N x t 8 sXsXsXsXsXsXsXsXsXsX",
"sXsXsXsXsXsXsXsXsXsXsXsXsXsXsXsX; ; 2 S uXuXqX2X0X Xp.C.tX_.P z 9 - - - sXsXsXsX",
"sXsXsXsXsXsXsXsXsXsXsXsXsXsX- O ,.4XI.U uXeX6X>X&Xi.A.wX5X#XH.I ! *._ & sXsXsXsX",
"sXsXsXsXsXsXsXsXsXsXsXsXsXp :.<.7X8XU.F.qX,X+X}.!.g 1.3XoX/.f.h.2.,.u = X sXsXsX",
"sXsXsXsXsXsXsXsXsXsXsXsXX / pXaX:XK.Z.yXF.@X[.M.u.F C.OX(.p.U :.=.H > w O   sXsX",
"sXsXsXsXsXsXsXsXsXsXsXsX; a G.-Xf.A.yX2X-X[.s.B c G.OX/.8.x o.O.p 8 m 4 @ sXsXsX",
"sXsXsXsXsXsXsXsXsXsXsX- X.<.2.~.a.@.6X XT.t.B F >.K.Y.8.F o.[ L.i., 4 + sXsXsXsX",
"sXsXsXsXsXsXsXsXsXk : X.X.W OX^.y.@.F.E.C g i._.OXS.+.R [ O.L.H.5.j 6 X sXsXsXsX",
"sXsXsXsXsXsXsXsXw.P.O.X.~ b ].b.V.S.k.I G w.(.&Xk.{ | | #.x.Y.9.Z l *   sXsXsXsX",
"sXsXsXsXsXsXsXY P.9X:.R K I c.l.rXS.Y H S.8X@Xk.^ i &.&.j./.I C n s   sXsXsXsXsX",
"sXsXsXsXsXsXV I.9X[ 8 Y.].s.c wXqXO.` F.).5X<.i i $.+X|.Q.f.z n s . sXsXsXsXsXsX",
"sXsXsXsXsXN `.U.^ 8 E.'.c.9.U G.X./ B.W.W ] e 0 :.=X|.Q.0.s n l >   sXsXsXsXsXsX",
"sXsXsXsXP E.*Xz.8 Y.'.c.6.g.>.o.X.] ' ! Y.E ( &.OX[.!.6.F ..7 @ . sXsXsXsXsXsXsX",
"sXsXsXsXV {.$XJ.f.].c.4.J %.*.e ) &.<Xj.T.Q -.Z.T.Q.0.c }  .= .   sXsXsXsXsXsXsX",
"sXsXsXsXB m.].}.'.M.Z f ' *.i K ! XX;XR.h.1.,.+.6.6.l r ) 0 $ X sXsXsXsXsXsXsXsX",
"sXsXsXsXA d.Q.N.v.5.f 6 i i v %X#X{.n.U G.,./ v 0.s 6 0 * &   sXsXsXsXsXsXsXsXsX",
"sXsXsXP d.s.e.7.4.j o.q % E %X#XR.r.U ;.;.a 6 < 3 = $ X X   sXsXsXsXsXsXsXsXsXsX",
"sXsX@ 2 9 C n l c ;.] * L _.[.R.r.U #.[ w = j l . X     sXsXsXsXsXsXsXsXsXsXsXsX",
"sXsX  + f 1 1 > 6 _ w $ T `.R.r.J H u 0 3 d g 3 X     sXsXsXsXsXsXsXsXsXsXsXsXsX",
"sXsX  > M > . o & o X $ 5 I 8.N r 0 . 1 C m 3     sXsXsXsXsXsXsXsXsXsXsXsXsXsXsX",
"sXsXsX@ g g < r e & o + > < < . X $ 7 C n 1 sXsXsXsXsXsXsXsXsXsXsXsXsXsXsXsXsXsX",
"sXsXsXsX. , r e & o + f g 4 O & * 7 Z 4., sXsXsXsXsXsXsXsXsXsXsXsXsXsXsXsXsXsXsX",
"sXsXsXsXsX. o % o + 4 h f > o o s s < < sXsXsXsXsXsXsXsXsXsXsXsXsXsXsXsXsXsXsXsX",
"sXsXsXsXsXsXsX  . . , < > .     3 3 sXsXsXsXsXsXsXsXsXsXsXsXsXsXsXsXsXsXsXsXsXsX",
"sXsXsXsXsXsXsXsX.               . sXsXsXsXsXsXsXsXsXsXsXsXsXsXsXsXsXsXsXsXsXsXsX",
"sXsXsXsXsXsXsXsXsXsXsXsXsXsXsXsXsXsXsXsXsXsXsXsXsXsXsXsXsXsXsXsXsXsXsXsXsXsXsXsX",
"sXsXsXsXsXsXsXsXsXsXsXsXsXsXsXsXsXsXsXsXsXsXsXsXsXsXsXsXsXsXsXsXsXsXsXsXsXsXsXsX",
"sXsXsXsXsXsXsXsXsXsXsXsXsXsXsXsXsXsXsXsXsXsXsXsXsXsXsXsXsXsXsXsXsXsXsXsXsXsXsXsX",
"sXsXsXsXsXsXsXsXsXsXsXsXsXsXsXsXsXsXsXsXsXsXsXsXsXsXsXsXsXsXsXsXsXsXsXsXsXsXsXsX",
"sXsXsXsXsXsXsXsXsXsXsXsXsXsXsXsXsXsXsXsXsXsXsXsXsXsXsXsXsXsXsXsXsXsXsXsXsXsXsXsX",
"sXsXsXsXsXsXsXsXsXsXsXsXsXsXsXsXsXsXsXsXsXsXsXsXsXsXsXsXsXsXsXsXsXsXsXsXsXsXsXsX"
};
