/* XPM */
static char *result[] = {
/* columns rows colors chars-per-pixel */
"40 40 6 1 ",
"  c #20D6C7",
". c #A6FCDB",
"X c #22BBD2",
"o c #63E9D1",
"O c #40AE9E",
"+ c white",
/* pixels */
"                                        ",
"       ...    ...  ...     ...    ..    ",
" ......XXX....XXoo.XXX.....XXX..ooXX... ",
" ..XXXXOOOXXXXOOOo.OOOXXXXXOOOooXXOOXX. ",
".XOOOOO   OOOO   o..oooo.oooo.OOOO  OOO.",
" O              o.  XX  XXoo.         O ",
" O             o           XX.o       O ",
" O            o                o.     O ",
" +.oo.oo..ooooo                  +.oo.o ",
" ooX   XXXXXXo                   ooX  O ",
" XX          Xo                 oXX   O ",
"O             o                o       O",
" O            .+ooo.o        oo       O ",
" O           .oo  XXXo..ooo...        O ",
" O         ooo           XXXXo.       O ",
" O        o                   o.      O ",
" oo.ooo..o.                    oooo.ooo ",
" O XXXXXo.                   .oo   XXXX ",
" O      XX.              ..oo         O ",
" O        o            ooXXX          O ",
"O          o          o                O",
" O         o.o      oo                O ",
" O       oooooo..o.o                  O ",
" O   o..o  XXXXXo.XX                 o. ",
" o.oo           Xoo              o.oo O ",
" XXX               oo          ooXXX  O ",
"O                   .o       o.        O",
" O                 ...oo.ooo..        O ",
" O                oo XXX XXXXo.       O ",
" O              oo           XXoo     O ",
" o.           o.               XXo.   O ",
" Oo..oooo...o..                   o..oo ",
" O..X   XXXXXoo.                  ..X O ",
" ooX         XXoo                ooX  O ",
" o              oo              oo    O ",
" O               o.           oo      O ",
"O                o..oooo.oooo.         O",
"                                        ",
"                                        ",
"                                        "
};
