/* XPM */
static char *result[] = {
/* columns rows colors chars-per-pixel */
"40 40 5 1 ",
"  c #72751B",
". c #7F8226",
"X c #787B21",
"o c #656C17",
"O c white",
/* pixels */
"                                        ",
"                                        ",
"                                        ",
"                                        ",
"                     .                  ",
"                ..X  XX                 ",
"                 .XX oX  .              ",
"                 oXXXo XXo              ",
"                .XoXX  XXo              ",
"                oXXoX  oo               ",
"                 oXoo                   ",
"                                        ",
"                                        ",
"                                        ",
"                                        ",
"                                        ",
"                                        ",
"                                        ",
"                                        ",
"                                        ",
"                                        ",
" ..                                     ",
"  .XX   ..                              ",
"  oXX  X.                               ",
"   oo XXX                               ",
"      XXo                               ",
"      oo                                ",
"                                        ",
"                                        ",
"                                        ",
"                                        ",
"         X.                             ",
"          ..                            ",
"          XXX                           ",
"          oXXoXX..                      ",
"           ooXXX                        ",
"             XXo                        ",
"             Xo                         ",
"                                        ",
"                                        "
};
