/* XPM */
static char *result[] = {
/* columns rows colors chars-per-pixel */
"40 40 165 2 ",
"   c #180E09",
".  c #1E1713",
"X  c #261F1B",
"o  c #221714",
"O  c #361F1B",
"+  c #26211E",
"@  c #2A221F",
"#  c #39241D",
"$  c #2B2421",
"%  c #2B2926",
"&  c #322621",
"*  c #382D28",
"=  c #3C332C",
"-  c #363534",
";  c #3B3837",
":  c #491E18",
">  c #461B17",
",  c #4C231A",
"<  c #4F281C",
"1  c #43241C",
"2  c #52291D",
"3  c #4A1D21",
"4  c #7A1623",
"5  c #7F1E25",
"6  c #432B21",
"7  c #4B2E21",
"8  c #532622",
"9  c #542E21",
"0  c #582D24",
"q  c #453526",
"w  c #4B3927",
"e  c #563222",
"r  c #5A3423",
"t  c #5E3729",
"y  c #5F3B2B",
"u  c #503D28",
"i  c #513F30",
"p  c #622523",
"a  c #792636",
"s  c #5C452B",
"d  c #594137",
"f  c #644A2D",
"g  c #69442D",
"h  c #684330",
"j  c #71463B",
"k  c #74483E",
"l  c #37295C",
"z  c #352659",
"x  c #3B3576",
"c  c #3C3A7D",
"v  c #432C5A",
"b  c #442A57",
"n  c #42315E",
"m  c #453561",
"M  c #464345",
"N  c #4D5558",
"B  c #535255",
"V  c #5B5B5B",
"C  c #594B46",
"Z  c #794D46",
"A  c #7C5344",
"S  c #4B4D7F",
"D  c #5F6367",
"F  c #5F6468",
"G  c #61666A",
"H  c #61686D",
"J  c #83161F",
"K  c #A11E17",
"L  c #831D26",
"P  c #812229",
"I  c #9C2524",
"U  c #992B2C",
"Y  c #9F2926",
"T  c #8A2E37",
"R  c #82313D",
"E  c #913839",
"W  c #A52C26",
"Q  c #A42E29",
"!  c #A5322D",
"~  c #A5413E",
"^  c #8D3F41",
"/  c #903F40",
"(  c #805149",
")  c #8A5A58",
"_  c #955155",
"`  c #A94F48",
"'  c #B04D40",
"]  c #A65353",
"[  c #A95449",
"{  c #89634F",
"}  c #956857",
"|  c #967258",
" . c #876854",
".. c #B56452",
"X. c #936864",
"o. c #94707F",
"O. c #A87075",
"+. c #A67763",
"@. c #C3775F",
"#. c #AC846A",
"$. c #B68C75",
"%. c #B79778",
"&. c #C29178",
"*. c #CA987E",
"=. c #3C3B82",
"-. c #3F4A8C",
";. c #414D88",
":. c #445997",
">. c #4B629C",
",. c #46619F",
"<. c #4A6BAB",
"1. c #4F72B0",
"2. c #8E6F81",
"3. c #927A8D",
"4. c #7D8583",
"5. c #718487",
"6. c #768490",
"7. c #5D83BC",
"8. c #6288BF",
"9. c #688FC4",
"0. c #7AA6D3",
"q. c #889492",
"w. c #A69AA6",
"e. c #97A8A7",
"r. c #9FA9BB",
"t. c #ADB1BE",
"y. c #CB9E82",
"u. c #C6A483",
"i. c #CAA685",
"p. c #C8A08A",
"a. c #CAAB89",
"s. c #D2AB89",
"d. c #DBB38E",
"f. c #D9B691",
"g. c #DCB993",
"h. c #E0BA95",
"j. c #C7B5B3",
"k. c #C4AAA8",
"l. c #DFC199",
"z. c #E5C29A",
"x. c #C5C7BC",
"c. c #8EB1C0",
"v. c #A7B4C5",
"b. c #BECBC8",
"n. c #A9C9DC",
"m. c #B3CEDB",
"M. c #B9D1D5",
"N. c #B5D1D6",
"B. c #A9CCE0",
"V. c #ACD6E9",
"C. c #B5D5E2",
"Z. c #ABDDF3",
"A. c #B4E2F4",
"S. c #B8E1F0",
"D. c #C3CEC6",
"F. c #CAE0DF",
"G. c #C8E3E9",
"H. c #D2E3E0",
"J. c #D4EDED",
"K. c #C3EBF5",
"L. c #D5EFF0",
"P. c #CAF3FB",
"I. c #D4F3F4",
"U. c #D6F4F7",
"Y. c #FFFFFF",
/* pixels */
"Y.Y.Y.Y.Y.Y.Y.Y.Y.Y.Y.Y.Y.0.c.Y.Y.Y.Y.Y.Y.Y.Y.Y.Y.Y.Y.Y.Y.Y.Y.Y.Y.Y.Y.Y.Y.Y.Y.Y.",
"Y.Y.Y.Y.Y.Y.Y.Y.Y.Y.Y.Y.Y.9.1.0.;.l l l z Y.Y.Y.Y.Y.Y.Y.Y.f Y.Y.Y.Y.Y.Y.Y.Y.Y.Y.",
"Y.Y.Y.Y.Y.Y.Y.Y.Y.Y.Y.Y.Y.Y.1.9.:.c x c ;.<.Y.Y.Y.Y.Y.Y.Y.q Y.Y.Y.Y.Y.Y.Y.Y.Y.Y.",
"Y.Y.Y.Y.Y.Y.Y.Y.Y.Y.Y.Y.Y.Y.Y.<.<.;.=.=.:.:.;.Y.Y.Y.Y.Y.Y.+ Y.Y.Y.Y.Y.Y.Y.Y.Y.Y.",
"Y.Y.Y.Y.Y.Y.Y.Y.Y.Y.Y.Y.Y.Y.Y.Y.b b v v m m v b Y.Y.s s Y.$ Y.Y.Y.Y.Y.Y.Y.Y.Y.Y.",
"Y.Y.Y.Y.Y.Y.Y.Y.Y.Y.Y.Y.Y.Y.Y.Y.U Y E ) $.X.^ U Y.Y.q q w s Y.Y.Y.Y.Y.Y.Y.Y.Y.Y.",
"Y.Y.Y.Y.Y.Y.Y.Y.Y.Y.Y.Y.Y.Y.Y.W W W ' y.s.a...W W Y.s w w f Y.Y.Y.Y.Y.Y.Y.Y.Y.Y.",
"Y.Y.Y.Y.Y.Y.Y.Y.Y.Y.Y.Y.Y.Y.W Q W I ` f.g.g.@.Q W Y.f s u f Y.Y.Y.Y.Y.Y.Y.Y.Y.Y.",
"Y.Y.Y.Y.Y.Y.Y.Y.Y.Y.Y.Y.Y.Y.Q W I L ^ s.s.&.[ I Q Y.g Y.Y.s Y.Y.Y.Y.Y.Y.Y.Y.Y.Y.",
"Y.Y.Y.Y.Y.Y.Y.Y.Y.Y.Y.Y.Y.Y.W Q T a _ y.y._ a L Q W Y.Y.Y.d u.f.u.Y.Y.Y.Y.Y.Y.Y.",
"Y.Y.Y.Y.Y.Y.Y.Y.Y.Y.Y.Y.Y.Q Q ! w.B.m.H.H.C.2.4 L Y Y.Y.Y.d $.i. .* Y.Y.Y.Y.Y.Y.",
"Y.Y.Y.Y.Y.Y.Y.Y.Y.Y.Y.Y.K ` j.j.G.P.U.U.L.U.C.3.4 W Y.Y.Y.Y.&.*.Y.Y.Y.Y.Y.Y.Y.Y.",
"Y.Y.Y.Y.Y.Y.Y.Y.Y.Y.Y.Y.Y.k.I.P.e.4.4.q.F.e.5.6.2.! Y.Y.Y.h.s.Y.Y.Y.Y.Y.Y.Y.Y.Y.",
"Y.Y.Y.Y.Y.Y.Y.Y.Y.Y.Y.Y.I.I.G.r.b . . - N.V   N V.O.Y.Y.x.d.f.Y.Y.Y.Y.Y.Y.Y.Y.Y.",
"Y.Y.Y.Y.Y.Y.Y.Y.Y.Y.Y.J.J.G.v.R 1 @ + - c.N o B n.V.Z.Z.M.f.f.Y.Y.Y.Y.Y.Y.Y.Y.Y.",
"Y.Y.Y.Y.Y.Y.Y.Y.Y.Y.J.J.K.t.~ Q 5 , @ @ - % 3 P ] m.Z.Z.M.f.Y.Y.Y.Y.Y.Y.Y.Y.Y.Y.",
"Y.Y.Y.Y.Y.Y.Y.Y.Y.Y.S.S.A.B.Y.W W p + + + + p I Y.Y.Z.Z.C.Y.Y.Y.Y.Y.Y.Y.Y.Y.Y.Y.",
"Y.Y.Y.Y.Y.Y.Y.Y.Y.Y.Y.b.D.D.Y.Y.Y.8 + $ @ + 8 Y.Y.Y.Y.Z.Y.Y.Y.Y.Y.Y.Y.Y.Y.Y.Y.Y.",
"Y.Y.Y.Y.Y.Y.Y.Y.Y.Y.Y.Y.d.d.Y.Y.Y.Y.$ @ + + * Y.Y.Y.Y.Y.Y.Y.Y.Y.Y.Y.Y.Y.Y.Y.Y.Y.",
"Y.Y.Y.Y.Y.Y.Y.Y.Y.Y.Y.Y.Y.d.f.Y.Y.g 7 @ $ % h ) Y.Y.Y.Y.Y.Y.Y.Y.Y.Y.Y.Y.Y.Y.Y.Y.",
"Y.Y.Y.Y.Y.Y.Y.Y.Y.Y.Y.Y.Y.Y.f.f.g.| e e e Z j t Y.Y.Y.Y.Y.Y.Y.Y.Y.Y.Y.Y.Y.Y.Y.Y.",
"Y.Y.Y.Y.Y.Y.Y.Y.Y.Y.Y.Y.Y.Y.Y.g.$.} Z ( Z j t e r Y.Y.Y.Y.Y.Y.Y.Y.Y.Y.Y.Y.Y.Y.Y.",
"Y.Y.Y.Y.Y.Y.Y.Y.Y.Y.Y.Y.Y.Y.Y.| Z j Z j j t e e r Y.Y.Y.Y.Y.Y.Y.Y.Y.Y.Y.Y.Y.Y.Y.",
"Y.Y.Y.Y.Y.Y.Y.Y.Y.Y.Y.Y.Y.Y.Y.< < < < e e e e e r Y.Y.Y.Y.Y.Y.Y.Y.Y.Y.Y.Y.Y.Y.Y.",
"Y.Y.Y.Y.Y.Y.Y.Y.Y.Y.Y.Y.Y.Y.e , 2 0 0 0 e e e e r Y.Y.Y.Y.Y.Y.Y.Y.Y.Y.Y.Y.Y.Y.Y.",
"Y.Y.Y.Y.Y.Y.Y.Y.Y.Y.Y.Y.Y.Y.9 , } &.} , e e r e e e Y.Y.Y.Y.Y.Y.Y.Y.Y.Y.Y.Y.Y.Y.",
"Y.Y.Y.Y.Y.Y.Y.Y.Y.Y.Y.Y.Y.Y.e : #.d.+., e e e e e e Y.Y.Y.Y.Y.Y.Y.Y.Y.Y.Y.Y.Y.Y.",
"Y.Y.Y.Y.Y.Y.Y.Y.Y.Y.Y.Y.Y.Y.t { i.$.j , < 9 e e e r Y.Y.Y.Y.Y.Y.Y.Y.Y.Y.Y.Y.Y.Y.",
"Y.Y.Y.Y.Y.Y.Y.Y.Y.Y.Y.Y.Y.Y.f s.z.} > > : 9 e e e e Y.Y.Y.Y.Y.Y.Y.Y.Y.Y.Y.Y.Y.Y.",
"Y.Y.Y.Y.Y.Y.Y.Y.Y.Y.Y.Y.Y.Y.g %.a.{ > > : 2 e e e e Y.Y.Y.Y.Y.Y.Y.Y.Y.Y.Y.Y.Y.Y.",
"Y.Y.Y.Y.Y.Y.Y.Y.Y.Y.Y.Y.Y.7 @ = = 1 > , : : 2 r e r Y.Y.Y.Y.Y.Y.Y.Y.Y.Y.Y.Y.Y.Y.",
"Y.Y.Y.Y.Y.Y.Y.Y.Y.Y.Y.Y.r 7 + @ # , : : : : 2 e e e Y.Y.Y.Y.Y.Y.Y.Y.Y.Y.Y.Y.Y.Y.",
"Y.Y.Y.Y.Y.Y.Y.Y.Y.Y.Y.Y.r 7 @ @ 7 2 : : : : 1 7 e e Y.Y.Y.Y.Y.Y.Y.Y.Y.Y.Y.Y.Y.Y.",
"Y.Y.Y.Y.Y.Y.Y.Y.Y.Y.Y.Y.7 6 $ + 7 2 : : : : O & e e Y.Y.Y.Y.Y.Y.Y.Y.Y.Y.Y.Y.Y.Y.",
"Y.Y.Y.Y.Y.Y.Y.Y.Y.Y.Y.Y.@ @ @ @ 7 2 : : : : O & e Y.Y.Y.Y.Y.Y.Y.Y.Y.Y.Y.Y.Y.Y.Y.",
"Y.Y.Y.Y.Y.Y.Y.Y.Y.Y.Y.Y.@ @ @ 7 e 2 : : : Y.@ @ @ Y.Y.Y.Y.Y.Y.Y.Y.Y.Y.Y.Y.Y.Y.Y.",
"Y.Y.Y.Y.Y.Y.Y.Y.Y.Y.Y.Y.Y.@ @ 9 Y.Y.Y.Y.Y.Y.Y.+ @ Y.Y.Y.Y.Y.Y.Y.Y.Y.Y.Y.Y.Y.Y.Y.",
"Y.Y.Y.Y.Y.Y.Y.Y.Y.Y.Y.Y.+ % M C V Y.H Y.H G B ; $ @ Y.Y.Y.Y.Y.Y.Y.Y.Y.Y.Y.Y.Y.Y.",
"Y.Y.Y.Y.Y.Y.Y.Y.Y.Y.Y.@ X ; G G F D D D D D G B $ + Y.Y.Y.Y.Y.Y.Y.Y.Y.Y.Y.Y.Y.Y.",
"Y.Y.Y.Y.Y.Y.Y.Y.Y.Y.Y.Y.Y.Y.Y.Y.Y.Y.Y.Y.Y.Y.Y.Y.Y.Y.Y.Y.Y.Y.Y.Y.Y.Y.Y.Y.Y.Y.Y.Y."
};
