/* XPM */
static char *result[] = {
/* columns rows colors chars-per-pixel */
"40 40 47 1 ",
"  c #5C5247",
". c #4F311E",
"X c #5C5147",
"o c #5D5247",
"O c #5D5248",
"+ c #4F3625",
"@ c #676159",
"# c #584132",
"$ c #543624",
"% c #5E5146",
"& c #5D4D41",
"* c #5F5349",
"= c #563D2C",
"- c #563B2A",
"; c #553726",
": c #553827",
"> c #583F30",
", c #6D685F",
"< c #6C675F",
"1 c #573F30",
"2 c #5C4C40",
"3 c #5B4A3D",
"4 c #5B493C",
"5 c #5B483B",
"6 c #573C2D",
"7 c #543523",
"8 c #5A4739",
"9 c #5D4D42",
"0 c #5B473A",
"q c #69645C",
"w c #6C685F",
"e c #6C675E",
"r c #5C4B40",
"t c #665F58",
"y c #5C4B3F",
"u c #5C493D",
"i c #5E4F45",
"p c #655C55",
"a c #655D56",
"s c #5E4F44",
"d c #5C4B3E",
"f c #5D5044",
"g c #5D4F43",
"h c #5D4E43",
"j c #5D4E42",
"k c #5C4D41",
"l c white",
/* pixels */
"                            .XX ooooOOOO",
"                            .  oooooOOOO",
"                            +  oooooOOOO",
"                            +   ooooOOOO",
"                            +   ooooOOOO",
"                            +XX oooooOOO",
"@@@@@@@@@@@@@@@@@@@@@@@@@@@@#@@@@@@@@@@@",
"@@@@@@@@@@@@@@@@@@@@@@@@@@@@$@@@@@@@@@@@",
"%%%%%%%%%%&&&%%%********##=-;:>*********",
",,,,,,,,,,,&<<<<<<<<<<<<<<<<<<<<<<<<<<<<",
"@@@@@@@@@@@&@@@@@@@@@@@@@@@@@@@@@@@@@@@@",
"@@@@@@@@@@@&@@@@@@@@@@@@@@@@@@@@@@@@@@@@",
"@@@@@@@@@@@&@@@@@@@@@@@@@@@@@@@@@@@@@@@@",
"@@@@@@@@@@@&@@@@@@@@@@@@@@@@@@@@@@@@@@@@",
"@@@@@@@@@@@&@@@@@@@@@@@@@@@@@@@@@@@@@@@@",
"@@@@@@@@@@@#@@@@@@@@@@@@@@@@@@@@@@@@@@@@",
"@@@@@@@@@@@1@@@@@@@@@@@@@@@@@@@@@@@@@@@@",
"2344555566$7;6***********8549440********",
"<<<qqqqqqqqqqqqqqqqqqwwwww<er<<<<<<<<<<<",
"ttttttttttttttttttttttttttttyttttttttttt",
"ttttttttttttttttttttttttttttuttttttttttt",
"ttttttttttttttttttttttttttttiptttttttttt",
"ttttttttttttttttttttttttttttiatttttttttt",
"ttttttttttttttttttttttttttttsttttttttttt",
"tttttttttttttttttttttttttttt7ttttttttttt",
"ttttttttattttttttttttttttttt7ttttttttttt",
"********dd4ddffffghjjjjj9777777kkkkkkkk9",
"                            .XX ooooOOOO",
"                            .  oooooOOOO",
"                            +  oooooOOOO",
"                            +   ooooOOOO",
"                            +   ooooOOOO",
"                            +XX oooooOOO",
"@@@@@@@@@@@@@@@@@@@@@@@@@@@@#@@@@@@@@@@@",
"@@@@@@@@@@@@@@@@@@@@@@@@@@@@$@@@@@@@@@@@",
"%%%%%%%%%%&&&%%%********##=-;:>*********",
",,,,,,,,,,,&<<<<<<<<<<<<<<<<<<<<<<<<<<<<",
"@@@@@@@@@@@&@@@@@@@@@@@@@@@@@@@@@@@@@@@@",
"@@@@@@@@@@@&@@@@@@@@@@@@@@@@@@@@@@@@@@@@",
"@@@@@@@@@@@&@@@@@@@@@@@@@@@@@@@@@@@@@@@@"
};
